<svg xmlns="http://www.w3.org/2000/svg" width="50.722" height="177.224" viewBox="0 0 50.722 177.224">
  <g id="Group_245" data-name="Group 245" transform="translate(0.006 -0.006)">
    <path id="Path_240" data-name="Path 240" d="M44.7,67.68c-2.425-4.322-6.642-9.383-6.536-13.7.211-14.654.738-29.518,0-44.066C37.741.21,29.2-.317,21.506.105c-8.223.422-9.7,6.642-9.7,13.389V38.9c0,5.271,1.054,11.807-.105,16.973C11.07,58.72,8.961,61.461,7.7,63.991,5.8,67.575,3.8,71.159,2,74.849c-2.108,4.217-1.9,8.434-1.9,13.072v68.208c0,4.533-.738,9.91,1.581,14.021C6.115,178.373,15.6,176.9,23.4,176.9c6.642,0,16.446,1.687,22.139-2.53,5.271-3.9,5.166-9.7,5.166-15.5V86.445c0-3.69.211-7.169-1.476-10.648C47.862,73.057,46.175,70.421,44.7,67.68ZM8.012,139.262v-40.9c10.964,3.69,23.825,2.425,34.789-.633v52.289c-10.753,3.373-24.247,5.166-34.789.422C8.012,146.641,8.012,142.952,8.012,139.262ZM22.139,8.012c1.9-.422,7.063-.738,8.012,1.16a4.2,4.2,0,0,1,.316,1.792H19.714C19.925,8.855,19.82,8.433,22.139,8.012Zm-6.852,58.72c2.425-4.639,4.428-8.434,4.428-13.81V32.153c0-4.428-.211-8.855-.211-13.389H30.256v33.84c0,5.8,2.319,9.488,5.166,14.548,2.108,3.69,4.322,7.274,6.22,11.069,1.37,2.741,1.265,5.06,1.265,8.223v2.846c-10.753,3.373-24.247,5.166-34.789.422V83.177C8.012,77.485,12.651,71.792,15.286,66.732ZM42.8,164.141c-.527,4.744-4.322,4.955-8.117,4.955-6.958,0-14.232.633-21.3,0-6.009-.527-5.482-5.482-5.482-9.91v-.422c10.964,3.69,23.825,2.425,34.789-.633v3.479A10.186,10.186,0,0,1,42.8,164.141Z" transform="translate(0 0)" fill="#231f20"/>
    <path id="Path_241" data-name="Path 241" d="M35.637,131.966c1.054.527,1.476.105.949-.949L25.095,108.141c-.527-1.054-1.37-1.054-1.792,0L11.812,131.017c-.527,1.054-.105,1.476.949.949,0,0,10.015-5.271,11.491-5.271C25.622,126.695,35.637,131.966,35.637,131.966Z" transform="translate(0.628 5.82)" fill="#231f20"/>
  </g>
</svg>
