<svg xmlns="http://www.w3.org/2000/svg" width="139.759" height="167.161" viewBox="0 0 139.759 167.161">
  <g id="Group_244" data-name="Group 244" transform="translate(0 0.086)">
    <path id="Path_234" data-name="Path 234" d="M136.366,85.861a24.112,24.112,0,0,0-14.091,4.35V76.594A3.654,3.654,0,0,0,118.682,73H21.089a3.654,3.654,0,0,0-3.594,3.594V90.211A22.842,22.842,0,0,0,3.4,85.861c-4.539.095-4.539,7.187,0,7.093a16,16,0,0,1,14.091,7.565v43.974a67.058,67.058,0,0,0,.284,9.74c1.7,9.74,10.213,16.36,19.859,16.644,9.646.378,19.292,0,28.938,0h35.463a20.535,20.535,0,0,0,20.143-20.143c.095-3.877,0-7.755,0-11.537V100.519a16,16,0,0,1,14.091-7.565C140.906,93.048,140.906,85.956,136.366,85.861Zm-34.328,77.924H39.718c-6.336,0-12.294-2.459-14.469-8.984-1.04-3.026-.662-6.62-.662-9.74V80.187h90.5v67.427C115.089,155.841,111.5,163.407,102.038,163.785Z" transform="translate(0 -3.97)" fill="#1f191a"/>
    <path id="Path_235" data-name="Path 235" d="M111.19,112.318c-5.485-.946-10.308-4.634-10.5-9.362-.095-3.783-6.241-5.012-7-.946-.851,4.823-3.688,10.308-9.457,9.646-5.107-.662-7.376-5.958-8.417-10.4-.851-3.5-5.958-3.31-6.809,0-1.229,4.539-3.215,9.646-8.511,10.4-5.39.757-9.173-3.877-9.078-8.984.095-4.634-6.62-4.445-7.093,0-.757,6.241-5.485,9.93-11.726,9.457-4.539-.378-4.539,6.714,0,7.093A16.6,16.6,0,0,0,47.452,112.7a14.093,14.093,0,0,0,11.254,6.147c6.241.189,10.686-3.121,13.618-7.755,2.648,4.161,6.714,7.282,12.1,7.565,5.485.284,9.74-2.459,12.577-6.525a19.894,19.894,0,0,0,12.2,6.9C113.838,119.883,115.729,113.074,111.19,112.318Z" transform="translate(-1.586 -5.367)" fill="#1f191a"/>
    <circle id="Ellipse_2" data-name="Ellipse 2" cx="4.35" cy="4.35" r="4.35" transform="translate(47.757 119.056)" fill="#1f191a"/>
    <circle id="Ellipse_3" data-name="Ellipse 3" cx="4.35" cy="4.35" r="4.35" transform="matrix(0.122, -0.993, 0.993, 0.122, 66.628, 149.427)" fill="#1f191a"/>
    <circle id="Ellipse_4" data-name="Ellipse 4" cx="4.35" cy="4.35" r="4.35" transform="matrix(0.122, -0.993, 0.993, 0.122, 89.686, 131.564)" fill="#1f191a"/>
    <path id="Path_236" data-name="Path 236" d="M72.557,37.539c2.553,5.012,4.35,14.563-3.215,16.36-4.445,1.04-2.553,7.944,1.891,6.809,10.781-2.553,12.388-15.32,8.7-24.115-2.175-5.107-5.579-9.362-8.984-13.807-4.35-5.485-6.62-11.254,0-16.076,3.688-2.648.095-8.795-3.594-6.147-8.795,6.431-10.119,15.509-3.783,24.3C66.6,29.122,70.193,32.81,72.557,37.539Z" transform="translate(-3.239 0)" fill="#1f191a"/>
    <path id="Path_237" data-name="Path 237" d="M89.436,47.957c-4.066,2.175-.473,8.227,3.594,6.147,5.3-2.742,5.2-8.889,3.594-13.9a36.5,36.5,0,0,0-4.445-8.511c-.851-1.135-1.7-2.27-2.459-3.4a11.141,11.141,0,0,1-1.04-1.8c3.4-.473,4.445-5.958.473-6.9-6.9-1.513-9.457,5.012-6.714,10.4C84.045,33.2,94.732,45.215,89.436,47.957Z" transform="translate(-4.42 -1.057)" fill="#1f191a"/>
    <path id="Path_238" data-name="Path 238" d="M50.436,47.957c-4.066,2.175-.473,8.227,3.594,6.147,5.3-2.742,5.2-8.889,3.594-13.9a36.5,36.5,0,0,0-4.445-8.511c-.851-1.135-1.7-2.27-2.459-3.4a11.141,11.141,0,0,1-1.04-1.8c3.4-.473,4.445-5.958.473-6.9-6.9-1.513-9.457,5.012-6.714,10.4C45.045,33.2,55.637,45.215,50.436,47.957Z" transform="translate(-2.301 -1.057)" fill="#1f191a"/>
  </g>
</svg>
