<svg xmlns="http://www.w3.org/2000/svg" width="98.266" height="176.701" viewBox="0 0 98.266 176.701">
  <path id="Path_239" data-name="Path 239" d="M97.68,78.387a182.21,182.21,0,0,0-.867-21.67c-.991-9.039-1.981-17.831-10.9-22.289-3.1-1.486-6.067-3.1-9.163-4.582C71.924,27.494,63.5,25.141,61.4,19.445c-.867-2.229.371-2.353.371-4.953,0-.991-1.362-4.458-1.362-3.839C60.285,8.3,62.39,6.691,61.4,3.967A5.566,5.566,0,0,0,57.932.376c-2.6-.743-6.315-.124-8.915-.124-2.848,0-7.182-.867-9.906.5a5.5,5.5,0,0,0-2.724,3.839c-.5,2.229.991,3.715,1.114,5.572-.124-.5-1.114,2.724-.991,2.353a7.43,7.43,0,0,0-.248,2.848c.124.5,1.114,2.105,1.114,2.477,0,.867-1.857,3.467-2.477,4.21-5.7,6.439-16.593,8.668-23.9,13C2.087,40.248,1.715,50.9.848,60.184c-.619,7.058-.5,13.373-.5,20.555,0,6.934-.619,14.364,0,20.927a136.953,136.953,0,0,1,0,22.536c-.619,7.306,0,15.354,0,22.908,0,3.219-.619,7.306.124,10.4,1.238,5.2,5.572,12.135,10.154,14.983,8.42,5.2,19.688,4.086,29.223,4.086H64.619c6.315,0,13.126-.124,19.193-2.353,5.82-2.105,8.42-6.191,11.268-11.392,1.857-3.467,2.848-5.7,2.848-9.535-.124-3.962,0-8.049,0-12.011,0-6.315.124-12.259,0-18.45a182,182,0,0,1,.371-21.793C98.547,93.741,97.68,85.816,97.68,78.387Zm-54.236-55.1c1.362-2.848,2.105-6.439.867-9.287.248-.124.5-.619.867-1.857.371-1.362-.248-2.724-.619-3.962h8.792a6.99,6.99,0,0,0-.743,2.477,5.833,5.833,0,0,0,.5,2.105A2.129,2.129,0,0,1,53.474,14C51,17.712,54.96,25.018,57.561,27.618,62.885,33.19,70.81,35.667,77.5,39.01a57.736,57.736,0,0,1,6.191,3.1c3.343,2.229,3.962,6.067,4.582,9.782a115.734,115.734,0,0,1,1.362,13H8.4c.5-4.334.619-8.668,1.238-13,.619-3.467,1.114-7.306,4.21-9.658,2.105-1.61,5.2-2.6,7.677-3.715C29.2,34.552,39.606,31.7,43.444,23.284Z" transform="translate(-0.078 0.02)" fill="#222"/>
</svg>
