<svg xmlns="http://www.w3.org/2000/svg" width="115.915" height="126.924" viewBox="0 0 115.915 126.924">
  <g id="Group_243" data-name="Group 243" transform="translate(0.114)">
    <path id="Path_227" data-name="Path 227" d="M8.6,37.1c-2,3.3-3.3,6.6-3,10.6a1.934,1.934,0,0,0,1.1,1.6,1.854,1.854,0,0,0,.7.2,5.283,5.283,0,0,0-.1,1.3c0,.2-.1.3,0,.5v.5a21.318,21.318,0,0,0,1.2,6,1.765,1.765,0,0,0,1.7,1.3,21.322,21.322,0,0,0,1.1,7,2.021,2.021,0,0,0,1.8,1.4,34.012,34.012,0,0,0,4.5-.3,30.2,30.2,0,0,0,3.5-.9,1.431,1.431,0,0,0,1.1.3,19.214,19.214,0,0,0,7-1.9c.1-.1.3-.1.4-.2s.3-.2.4-.3a21.914,21.914,0,0,0,4.2-4.4c.1-.1.1-.2.2-.3A21.017,21.017,0,0,0,37,58.2c.1-.1.3-.1.4-.2s.3-.2.4-.3a22.825,22.825,0,0,0,6-6.8,2,2,0,0,0,3.3,1.2A24.175,24.175,0,0,0,52,45.6a11.882,11.882,0,0,0,1.1-4.4.918.918,0,0,0,.4-.6,10.376,10.376,0,0,0,.4-1,2.506,2.506,0,0,0,.7-.4c4.4-4.5,6.7-8.9,5.6-15.4a1.493,1.493,0,0,0-.3-.7,16.043,16.043,0,0,0-.5-8.4.52.52,0,0,0-.2-.4l-.1-.1a5.878,5.878,0,0,0-.5-3.6C56.9,6.7,53,4.8,49.4,3a12.693,12.693,0,0,0-6.5-1.4c-.1,0-.1-.1-.2-.1A11.421,11.421,0,0,0,38.3.4C38.2,0,38,0,37.8,0a.749.749,0,0,0-.5.1,14.922,14.922,0,0,0-10.9,6,3.08,3.08,0,0,0-.5,1.2,4.62,4.62,0,0,0-.7.7c-.1,0-.2.1-.3.2a35.228,35.228,0,0,0-2.7,3.7,1.421,1.421,0,0,0-.6.2,24.282,24.282,0,0,0-3.2,2.4,24.607,24.607,0,0,0-3.9,5.1,1.82,1.82,0,0,0,.9,2.6c-.4.4-.9.7-1.3,1.1a37.388,37.388,0,0,0-5.7,6.8h0c-.1.1-.1.2-.2.3a1.615,1.615,0,0,0,.5,2.3,1.612,1.612,0,0,0,.7.4c.2.1.5.2.7.3a18.156,18.156,0,0,0-.8,2.9A2.853,2.853,0,0,0,8.6,37.1ZM37.8,3.8h0c0,.1-.1.2-.1.3-1.1.1-2.2.3-3.4.4A9.918,9.918,0,0,1,37.8,3.8ZM25.3,62.1a18.664,18.664,0,0,0,.4-2.5,10.947,10.947,0,0,0,2.3-.9v.9a1.689,1.689,0,0,0,.3,1c-.2.1-.3.3-.5.4A6.193,6.193,0,0,1,25.3,62.1Zm-8.6,1.3c-.7.1-1.4.1-2.1.2a19.465,19.465,0,0,1-.6-5.4,2.506,2.506,0,0,0,.7-.4c.1.5.1.9.2,1.4a2.055,2.055,0,0,0,1.8,1.4,23.634,23.634,0,0,0,4.6-.2,2.364,2.364,0,0,1-.4,1.6C20.2,62.9,17.7,63.2,16.7,63.4ZM13.6,34.9a11.816,11.816,0,0,0,4.6-.3,2.057,2.057,0,0,0,2.1.8c.2-.1.4-.1.6-.2a25.123,25.123,0,0,0,.4,2.7,30.5,30.5,0,0,1-8.4,4.8A17.2,17.2,0,0,1,13.6,34.9ZM37.7,8.4a9.353,9.353,0,0,0,2.5,3.7c-2.4,1-4.9,1.7-7.3,2.9-1.1.6-2.2,1.2-3.3,1.9a17.2,17.2,0,0,1,.2-3.2,29.488,29.488,0,0,1,1.5-4.8C33.4,8.8,35.6,8.7,37.7,8.4Zm15.1,11c.9,1.4,2,2.6,1.6,4.5A15.047,15.047,0,0,1,52.6,28a9.951,9.951,0,0,1-3.7,3.9,43.388,43.388,0,0,1,0-5.1c.2-2.7.6-5.4.9-8.1A8.19,8.19,0,0,0,52.8,19.4ZM39.9,43.1c0-1,.1-2.1.2-3.1.3-2.4.8-4.7,1.2-7.1a16.812,16.812,0,0,0,3.2-.9c.1,1.2.1,2.4.3,3.6a1.875,1.875,0,0,0,2.4,1.8c.1,0,.1,0,.2-.1A21.356,21.356,0,0,1,39.9,43.1Zm4.8-23a2.651,2.651,0,0,0,.6-.5c-.3,2.6-.6,5.1-.8,7.7-2.4,1.7-5.8,1.7-8.7,1.8a24.829,24.829,0,0,1-1.7-9.7c.2-.1.4-.3.6-.4,2.4-1.2,5.1-1.9,7.6-3-.1.7-.2,1.4-.3,1.9C41.7,19.4,43.3,21.1,44.7,20.1ZM19.4,46.2a5.34,5.34,0,0,1,.5-1.8c.7-1.1.1-.1,1.1-.9.5-.4,1-.7,1.5-1.1.3.9.6,1.9,1,2.8a1.921,1.921,0,0,0,1.8,1.4c1.3-.1,2.6-.1,4-.2a59.683,59.683,0,0,0-1.1,7.2,18.249,18.249,0,0,1-9.3,2.7A24.555,24.555,0,0,1,19.4,46.2Zm6.7-23.6a1.565,1.565,0,0,0,2.2.3c.5-.3.9-.6,1.4-.9a19.931,19.931,0,0,0,.5,3.4,29.445,29.445,0,0,1-8.4,4.8,17.241,17.241,0,0,1,.2-6.4A15.912,15.912,0,0,0,26.1,22.6Zm5.2,19.2c-1.4.2-2.8.2-4.3.3a24.867,24.867,0,0,1-1.8-8.5,33.517,33.517,0,0,0,6.3-3.7,19.452,19.452,0,0,0,.8,2.2,2.055,2.055,0,0,0,1.8,1.4,24.518,24.518,0,0,0,2.7-.2,54.983,54.983,0,0,0-1.1,6.9A10.2,10.2,0,0,1,31.3,41.8ZM11,51.2a13.5,13.5,0,0,1,.6-3.5c1-.3,2.1-.6,3.1-1a15,15,0,0,0-.5,5.1c.1.7.2.8.1,1a3.815,3.815,0,0,1-1.4,1.1,8.265,8.265,0,0,1-1.3.7A12.759,12.759,0,0,1,11,51.2ZM25.5,13.7a14.919,14.919,0,0,0-.2,2.1,2.769,2.769,0,0,1-.9.1A7.554,7.554,0,0,1,25.5,13.7Zm-5.7,5.1a1.419,1.419,0,0,0,.9.8,6.15,6.15,0,0,1-1.4-.1A1.794,1.794,0,0,1,19.8,18.8ZM35.5,54.5A17.724,17.724,0,0,1,32.4,56a87.959,87.959,0,0,1,1.4-10.3c.5-.2,1.1-.3,1.6-.5v1.5a1.875,1.875,0,0,0,2.4,1.8c1.3-.4,2.5-.8,3.7-1.3A19.347,19.347,0,0,1,35.5,54.5ZM48.3,44.2V42.8c0-.4,0-.4.1.1a2.7,2.7,0,0,1,.7-.8,9.037,9.037,0,0,1-.8,2.1ZM53.2,15c-2-.1-3.7-1.3-5.7-1.2a4.253,4.253,0,0,0-1.1.2,7.324,7.324,0,0,0-1.9-3.7c-1-1.1-3.6-2.8-2.7-4.5.7-1.4,3.7-.6,4.8-.3C49.7,6.7,59.6,13,53.2,15ZM17.3,25.6a23.748,23.748,0,0,0,.1,4.6,6.631,6.631,0,0,1-4.4.1A46.874,46.874,0,0,1,17.3,25.6Z" fill="#222"/>
    <path id="Path_228" data-name="Path 228" d="M90.7,73.5c2.6-2.2,3.6-4.9,4.2-8.2V65c1.7-1.7,2.4-4.6,2.8-6.8a2.079,2.079,0,0,0-.1-1.1A18.748,18.748,0,0,0,99.8,51a2.462,2.462,0,0,0-.1-1.2,15.982,15.982,0,0,0,1.9-5.7,2.168,2.168,0,0,0-.5-1.8,18.4,18.4,0,0,0,1.4-6.1,2.106,2.106,0,0,0-.5-1.3c1.8-2.4,2.1-5.5,1.9-8.5a2.127,2.127,0,0,0-.7-1.5c1.5-2.6,1.2-5.6.4-8.6l-.3-.6a12.767,12.767,0,0,0-.5-7,1.962,1.962,0,0,0-2.6-1.2A10.157,10.157,0,0,0,98.5,2a1.854,1.854,0,0,0-2.9-.4c-1.2,1-2.5,2-3.7,3.2C90.7,3.4,89.2,2.3,88,1.1a1.846,1.846,0,0,0-2.9.4,9.678,9.678,0,0,0-1.8,5.4,1.693,1.693,0,0,0-1.4.9,12.823,12.823,0,0,0-1.4,6.9,12.826,12.826,0,0,0-1.6,5.6,2.7,2.7,0,0,0-.8.7c-.9,1.8-2.6,5.3-1.9,7.7a12.28,12.28,0,0,0-1.8,6c-.1.1-.2.3-.3.4A13.539,13.539,0,0,0,72,41.8l-.1.1c-1.1,2-2.4,4.7-2.3,7.2l-.1.1a16.993,16.993,0,0,0-2.3,6.2,2.445,2.445,0,0,0-.9,1.1c-1.3,3.2-1.8,6.1-.6,9.4.1.1.1.3.2.4a9.963,9.963,0,0,0,6,9.7.349.349,0,0,1,.2.1A18.136,18.136,0,0,1,71,82.6c-1,4-2.1,8-3.2,12-1.5,5.1-3.2,10-6.3,14.4-1.2,1.6-4.5,5.4-2.9,7.7,3,4.4,9.1-7.2,10-9.2a118.772,118.772,0,0,0,5.5-14.4c1.4-4.4,2.3-11.7,6.2-14.7a13.229,13.229,0,0,0,5-.6,8.362,8.362,0,0,0,4.8-4.2A.614.614,0,0,0,90.7,73.5ZM80.5,24.7a44.691,44.691,0,0,1,4.1,3.2A8.511,8.511,0,0,1,87,31.7a10.365,10.365,0,0,1,.3,2.8A10.917,10.917,0,0,0,86,32.8c-1.8-2-4.2-3.4-6.2-5.4C79.5,27.3,80,26,80.5,24.7ZM69.2,59.8a4.348,4.348,0,0,0,.7.4l.1.1c2.7,1.6,5.3,3.5,6.5,6.4-2-2-4.7-3.1-7.5-4.4h0A4.234,4.234,0,0,1,69.2,59.8ZM74,49.9a1.035,1.035,0,0,1-.5-.7c-.4-1,.1-2.3.7-3.4,1.3,1.1,2.7,2.1,3.9,3.3a11.425,11.425,0,0,1,3,5.9v1.8a20.81,20.81,0,0,0-5-5.3,3.49,3.49,0,0,0-.9-.6A7.742,7.742,0,0,0,74,49.9Zm4.8-18.1a45.532,45.532,0,0,1,4,3.5,10.4,10.4,0,0,1,2.5,5.5V42a10.555,10.555,0,0,0-1.9-2.4c-1.6-1.6-3.5-2.9-5.2-4.3A6.079,6.079,0,0,1,78.8,31.8Zm4.3-13.9a45.532,45.532,0,0,1,4,3.5A7.064,7.064,0,0,1,89,26v.8a10.708,10.708,0,0,0-1.8-1.9c-1.4-1.2-3-2.3-4.5-3.4A7.183,7.183,0,0,1,83.1,17.9ZM96.8,41.6a31.711,31.711,0,0,0-7.6.5V40.7c2.4-2,5.3-2.1,8.4-2.3.3,0,.5-.1.8-.1A8.447,8.447,0,0,1,96.8,41.6Zm-6.9,27c-2.4-.4-5.1-1-7.5-.7-.3,0-.5.1-.8.1a5.9,5.9,0,0,1,.8-.4c2.3-1.1,5-.8,7.5-.8h.7A6.7,6.7,0,0,1,89.9,68.6Zm2-6.1c-.2.1,1.5-.1-.4.2a19.219,19.219,0,0,1-2.4,0,30.834,30.834,0,0,0-5.3.3c-.4.1-.9.2-1.3.3a.367.367,0,0,1,.1-.3,3.574,3.574,0,0,1,2.3-2.5c2.4-1.2,5.3-.9,7.9-.9h.8A6.061,6.061,0,0,1,91.9,62.5Zm2.8-7.9a9.016,9.016,0,0,1-.9,1H91.9a31.334,31.334,0,0,0-5.3.2,8.447,8.447,0,0,0-1.7.5v-.1c0-1.5.5-2,1.9-2.8,2.4-1.3,5.4-1,8.1-.9h.8A19.985,19.985,0,0,1,94.7,54.6Zm1.9-7c-.6,1.3-1.3.9-2.9.9a29.023,29.023,0,0,0-5.1.2c-.4.1-.9.3-1.5.5,0-1.4-.2-1.7,1.3-2.5,2.5-1.4,5.5-1.1,8.2-1h.7C97.1,46.3,96.9,46.9,96.6,47.6Zm-.2-13.2c-1.4.4-3.1.2-4.6.5-.2,0-.3.1-.5.1v-.5c0-1.7-.1-2.2,1.4-3.3,2.1-1.5,4.8-1.8,7.3-2.4C99.9,31.3,99.1,33.7,96.4,34.4Zm-.1-8.7a33.984,33.984,0,0,0-3.4,1.2c.2-1.8.6-3.4,2.2-4.6a21.309,21.309,0,0,1,5.2-2.7C100.5,22.3,99.6,24.7,96.3,25.7Zm3.2-11c-.6,1.4-1.7,1.6-3,2.2a15.912,15.912,0,0,0-2.6,1.4,7.719,7.719,0,0,0-.2-1.5c1-2.3,3.6-3.8,6-4.9A4.5,4.5,0,0,1,99.5,14.7ZM88,14.4a5.86,5.86,0,0,1,1.9,4.1h0c-.6-.6-1.2-1.2-1.8-1.7-1.3-1.1-2.7-2.2-4-3.2a5.245,5.245,0,0,1,.2-1.8A22.552,22.552,0,0,1,88,14.4ZM80.2,42.2a10.471,10.471,0,0,1,3,5.8v1.3a12.787,12.787,0,0,0-2.3-3.2c-1.6-1.5-3.4-2.9-5.2-4.3a8.818,8.818,0,0,1,.7-2.9C77.7,40,79,41.1,80.2,42.2ZM75.6,56.3a8.853,8.853,0,0,1,2.8,5.8c-1.9-2.3-4.5-3.9-7.3-5.7a7.674,7.674,0,0,1,.7-3.4A31.051,31.051,0,0,1,75.6,56.3Zm-3,12.3a5.12,5.12,0,0,1,2,2.6,19.381,19.381,0,0,1,.7,2.2,5.91,5.91,0,0,1-1.4-.6h0A6.534,6.534,0,0,1,69.7,67,16.409,16.409,0,0,1,72.6,68.6Zm3.3,9h.2l-.2.2ZM96.1,6a3.746,3.746,0,0,1-1.5,4.2,9.484,9.484,0,0,0-.5-2.3C94.7,7.3,95.4,6.6,96.1,6ZM89.4,7.8a5.233,5.233,0,0,1,1.2,3.4v.2c-.6-.6-1.3-1.1-2-1.7a3.392,3.392,0,0,1-1.4-4.2C87.9,6.2,88.7,7,89.4,7.8ZM83.8,74.5a10.732,10.732,0,0,1-4.4.1v-.7A5.967,5.967,0,0,1,84.1,72a24.768,24.768,0,0,1,2.7.3A5.3,5.3,0,0,1,83.8,74.5Z" fill="#222"/>
    <path id="Path_229" data-name="Path 229" d="M19.5,107.6a4.875,4.875,0,0,0-.3.7c-.8,3.9-2.3,8.1-2.5,12.1a5.863,5.863,0,0,0,5.2,6.5c3.4.3,5.7-2.2,6.5-5.3,1-3.7,2.4-8.3,2.2-12.2C30.4,102.8,21.8,101.8,19.5,107.6Zm5.7,5.2c-.5,2.5-.7,5.3-1.6,7.7-.4,1.2-.9,2-1.8.7-.1-.1-.1-1.3,0-.6a12.662,12.662,0,0,1,.6-2.8c.6-2.7,1.2-5.5,1.7-8.2.6-2,1.6-.3,1.6,1C25.7,110.3,25.3,112.4,25.2,112.8Z" fill="#222"/>
    <path id="Path_230" data-name="Path 230" d="M27.4,78.6c.1.2.1.4.2.5,1.9,3.3,3.6,7,5.8,10.1,4.6,6.4,13.3.8,10-6.2a46.606,46.606,0,0,0-6.1-10.3C32.7,67.2,24.9,72.2,27.4,78.6Zm10.1,7.7a16.408,16.408,0,0,1-1.6-2.9c-1.3-2.3-2.6-4.6-3.9-6.8.1.1-.2-1.3.8-1.3.4,0,.8.8,1.1,1.1.5.7.9,1.6,1.4,2.4,1.1,1.9,3.4,4.6,3.9,6.8C39.4,87.1,38.4,87.4,37.5,86.3Z" fill="#222"/>
    <path id="Path_231" data-name="Path 231" d="M28.8,89.8a1.268,1.268,0,0,0-.6.1c-3.8,1.2-8.2,1.9-11.7,3.7A6.358,6.358,0,0,0,13.8,96c.1-1.1.2-2.3.2-3.3A5.832,5.832,0,0,0,2.7,90.8a4.875,4.875,0,0,0-.3.7C1.6,95.4.1,99.6-.1,103.6a5.863,5.863,0,0,0,5.2,6.5c3.4.3,5.7-2.2,6.5-5.3.4-1.6.9-3.3,1.3-5.1a6.334,6.334,0,0,0,7.7,4.8c3.8-.8,8.5-1.9,11.8-3.9C38.6,97.1,35.3,88.8,28.8,89.8ZM8.4,96.1c-.5,2.5-.7,5.3-1.6,7.7-.4,1.2-.9,2-1.8.7-.1-.1-.1-1.3,0-.6a12.662,12.662,0,0,1,.6-2.8c.6-2.7,1.2-5.5,1.7-8.2.6-2,1.6-.3,1.6,1A15.177,15.177,0,0,0,8.4,96.1Zm21.3.4a11.224,11.224,0,0,1-2.6.8c-2.2.7-5.1,2.3-7.4,2.3-1.1,0-2,.1-1.5-1.3.1-.1,1.2-.7.6-.4a13.818,13.818,0,0,1,2.7-.8c2.7-.8,5.3-1.6,8-2.4C30.3,94.6,31.6,95.4,29.7,96.5Z" fill="#222"/>
    <path id="Path_232" data-name="Path 232" d="M54.3,93.9a1.7,1.7,0,0,0-.7-.1c-4-.2-8.7-1.1-12.7-.3A5.842,5.842,0,0,0,36,99.8c.3,3.4,3.4,5,6.6,5.3,3.8.3,8.9,1.1,12.6,0C61.6,103.2,60.1,95.1,54.3,93.9Zm.1,6.2c-.2.4-1.1.4-1.5.4a17.7,17.7,0,0,1-2.3-.1c-2.3-.1-5.8.5-8-.3-4.4-1.6,2-1.7,2.9-1.7l8.1.3C53.3,98.7,54.9,99,54.4,100.1Z" fill="#222"/>
    <path id="Path_233" data-name="Path 233" d="M104,74.7a2.283,2.283,0,0,0-2.7-1.7,2.108,2.108,0,0,0-2.2,2v.7c.3,5.1-3.2,9.3-5.6,13.5A33.746,33.746,0,0,0,89.2,103c-.7,8.4,2.4,17.8,12.3,17.7,8.9-.1,14.3-8.3,14.3-16.6C115.9,93,107,84.9,104,74.7Zm-3.9,40.8c-10.1-1.8-5.4-18.2-2.2-23.8a90.5,90.5,0,0,0,4.5-8c2.3,4.3,5,8.5,6.9,13.1C112.1,103.7,110.8,117.4,100.1,115.5Z" fill="#222"/>
  </g>
</svg>
